{
 "accessors": [
  {
   "componentType": 5126,
   "type": "VEC3",
   "count": 173,
   "max": [
    1.4886924028396606,
    0.5566551685333252,
    1.0246946811676025
   ],
   "min": [
    1.4884923696517944,
    0.5564568042755127,
    1.02449631690979
   ],
   "bufferView": 1
  },
  {
   "componentType": 5126,
   "type": "VEC3",
   "count": 173,
   "bufferView": 2
  },
  {
   "componentType": 5126,
   "type": "VEC2",
   "count": 173,
   "bufferView": 3
  },
  {
   "componentType": 5121,
   "type": "SCALAR",
   "count": 912,
   "bufferView": 4
  },
  {
   "componentType": 5126,
   "type": "VEC3",
   "count": 6872,
   "max": [
    9.0935697555542,
    31.9041805267334,
    10.957903861999512
   ],
   "min": [
    -9.170332908630371,
    12.103607177734375,
    -16.11327362060547
   ],
   "bufferView": 5
  },
  {
   "componentType": 5126,
   "type": "VEC3",
   "count": 6872,
   "bufferView": 6
  },
  {
   "componentType": 5126,
   "type": "VEC2",
   "count": 6872,
   "bufferView": 7
  },
  {
   "componentType": 5123,
   "type": "SCALAR",
   "count": 9885,
   "bufferView": 8
  },
  {
   "componentType": 5126,
   "type": "VEC3",
   "count": 173,
   "max": [
    -1.4778703451156616,
    0.5562962889671326,
    1.0239843130111694
   ],
   "min": [
    -1.4780703783035278,
    0.5560974478721619,
    1.0237854719161987
   ],
   "bufferView": 9
  },
  {
   "componentType": 5126,
   "type": "VEC3",
   "count": 173,
   "bufferView": 10
  },
  {
   "componentType": 5126,
   "type": "VEC2",
   "count": 173,
   "bufferView": 11
  },
  {
   "componentType": 5121,
   "type": "SCALAR",
   "count": 912,
   "bufferView": 12
  },
  {
   "componentType": 5126,
   "type": "VEC3",
   "count": 439,
   "max": [
    1,
    1.4546103477478027,
    1.716634750366211
   ],
   "min": [
    -1.000000238418579,
    -1,
    -1.0000004768371582
   ],
   "bufferView": 13
  },
  {
   "componentType": 5126,
   "type": "VEC3",
   "count": 439,
   "bufferView": 14
  },
  {
   "componentType": 5126,
   "type": "VEC2",
   "count": 439,
   "bufferView": 15
  },
  {
   "componentType": 5123,
   "type": "SCALAR",
   "count": 2280,
   "bufferView": 16
  }
 ],
 "asset": {
  "version": "2.0",
  "generator": "clara.io"
 },
 "bufferViews": [
  {
   "buffer": 0,
   "byteOffset": 0,
   "byteLength": 274339
  },
  {
   "buffer": 0,
   "byteOffset": 274340,
   "byteLength": 2076,
   "target": 34962,
   "byteStride": 12
  },
  {
   "buffer": 0,
   "byteOffset": 276416,
   "byteLength": 2076,
   "target": 34962,
   "byteStride": 12
  },
  {
   "buffer": 0,
   "byteOffset": 278492,
   "byteLength": 1384,
   "target": 34962,
   "byteStride": 8
  },
  {
   "buffer": 0,
   "byteOffset": 279876,
   "byteLength": 912,
   "target": 34963
  },
  {
   "buffer": 0,
   "byteOffset": 280788,
   "byteLength": 82464,
   "target": 34962,
   "byteStride": 12
  },
  {
   "buffer": 0,
   "byteOffset": 363252,
   "byteLength": 82464,
   "target": 34962,
   "byteStride": 12
  },
  {
   "buffer": 0,
   "byteOffset": 445716,
   "byteLength": 54976,
   "target": 34962,
   "byteStride": 8
  },
  {
   "buffer": 0,
   "byteOffset": 500692,
   "byteLength": 19770,
   "target": 34963
  },
  {
   "buffer": 0,
   "byteOffset": 520464,
   "byteLength": 2076,
   "target": 34962,
   "byteStride": 12
  },
  {
   "buffer": 0,
   "byteOffset": 522540,
   "byteLength": 2076,
   "target": 34962,
   "byteStride": 12
  },
  {
   "buffer": 0,
   "byteOffset": 524616,
   "byteLength": 1384,
   "target": 34962,
   "byteStride": 8
  },
  {
   "buffer": 0,
   "byteOffset": 526000,
   "byteLength": 912,
   "target": 34963
  },
  {
   "buffer": 0,
   "byteOffset": 526912,
   "byteLength": 5268,
   "target": 34962,
   "byteStride": 12
  },
  {
   "buffer": 0,
   "byteOffset": 532180,
   "byteLength": 5268,
   "target": 34962,
   "byteStride": 12
  },
  {
   "buffer": 0,
   "byteOffset": 537448,
   "byteLength": 3512,
   "target": 34962,
   "byteStride": 8
  },
  {
   "buffer": 0,
   "byteOffset": 540960,
   "byteLength": 4560,
   "target": 34963
  }
 ],
 "buffers": [
  {
   "byteLength": 545520,
   "uri": "data:application/octet-stream;base64,"
  }
 ],
 "images": [
  {
   "name": "Anglerfish_Interaction01c_Anglerfish_Rig_Anglerfish_BaseColor.png",
   "bufferView": 0,
   "mimeType": "image/jpeg"
  }
 ],
 "materials": [
  {
   "name": "phongE1",
   "pbrMetallicRoughness": {
    "roughnessFactor": 0.3015,
    "metallicFactor": 0
   }
  },
  {
   "name": "Anglerfish_Rig:Anglerfish",
   "pbrMetallicRoughness": {
    "baseColorTexture": {
     "index": 0,
     "texCoord": 0
    },
    "roughnessFactor": 0.4534,
    "metallicFactor": 0
   }
  },
  {
   "name": "lambert3",
   "pbrMetallicRoughness": {
    "roughnessFactor": 0.25,
    "metallicFactor": 0
   }
  }
 ],
 "meshes": [
  {
   "primitives": [
    {
     "indices": 3,
     "material": 0,
     "mode": 4,
     "attributes": {
      "POSITION": 0,
      "NORMAL": 1,
      "TEXCOORD_0": 2
     }
    }
   ]
  },
  {
   "primitives": [
    {
     "indices": 7,
     "material": 1,
     "mode": 4,
     "attributes": {
      "POSITION": 4,
      "NORMAL": 5,
      "TEXCOORD_0": 6
     }
    }
   ]
  },
  {
   "primitives": [
    {
     "indices": 11,
     "material": 0,
     "mode": 4,
     "attributes": {
      "POSITION": 8,
      "NORMAL": 9,
      "TEXCOORD_0": 10
     }
    }
   ]
  },
  {
   "primitives": [
    {
     "indices": 15,
     "material": 2,
     "mode": 4,
     "attributes": {
      "POSITION": 12,
      "NORMAL": 13,
      "TEXCOORD_0": 14
     }
    }
   ]
  }
 ],
 "nodes": [
  {
   "name": "angler",
   "children": [
    1,
    4,
    5,
    8,
    9,
    10,
    11,
    15,
    16,
    17,
    18
   ]
  },
  {
   "name": "Anglerfish_Rig:MoverScaler",
   "translation": [
    0,
    -0.00003438469866523519,
    3.1242984732671175e-7
   ],
   "scale": [
    0.009999999776482582,
    0.009999999776482582,
    0.009999999776482582
   ],
   "children": [
    2
   ]
  },
  {
   "name": "Anglerfish_Rig:Rotater",
   "translation": [
    -0.006791326217353344,
    -0.06451435387134552,
    -0.0000798718465375714
   ],
   "children": [
    3
   ]
  },
  {
   "name": "pointLight1",
   "translation": [
    0,
    9.574549674987793,
    26.683900833129883
   ]
  },
  {
   "name": "Anglerfish_Rig:LookWeight",
   "translation": [
    0,
    1,
    0
   ],
   "scale": [
    0.009999999776482582,
    0.009999999776482582,
    0.009999999776482582
   ]
  },
  {
   "name": "Anglerfish_Rig:MasterEyes",
   "translation": [
    0,
    1.1112867593765259,
    1.4188544750213623
   ],
   "scale": [
    0.009999999776482582,
    0.009999999776482582,
    0.009999999776482582
   ],
   "children": [
    6,
    7
   ]
  },
  {
   "name": "Anglerfish_Rig:R_EyeAim"
  },
  {
   "name": "Anglerfish_Rig:L_EyeAim"
  },
  {
   "name": "place3dTexture1",
   "translation": [
    0,
    0.1818159967660904,
    0
   ],
   "scale": [
    0.2775000035762787,
    0.2775000035762787,
    0.2775000035762787
   ]
  },
  {
   "name": "group",
   "translation": [
    0,
    0.4669150114059448,
    0
   ],
   "scale": [
    0.09260900318622589,
    0.09260900318622589,
    0.09260900318622589
   ]
  },
  {
   "name": "UnderwaterCaustics1:directionalLight1",
   "translation": [
    -0.003564209910109639,
    0.5258309841156006,
    0.0024211499840021133
   ],
   "rotation": [
    0.5355802632234745,
    0.5794708399734697,
    0.3618511259327756,
    -0.4964182659982472
   ],
   "scale": [
    0.010000000227398997,
    0.009999999650691342,
    0.009999999614084064
   ]
  },
  {
   "name": "Shaker",
   "translation": [
    0,
    0.00007635198562638834,
    0
   ],
   "scale": [
    0.009999999776482582,
    0.009999999776482582,
    0.009999999776482582
   ],
   "children": [
    12
   ]
  },
  {
   "name": "Rotater",
   "translation": [
    -0.13355104625225067,
    -0.034060072153806686,
    0.06572388112545013
   ],
   "rotation": [
    -0.0023275928194169087,
    -0.0023168075509133346,
    -0.0023275928194169087,
    0.9999918937354548
   ],
   "children": [
    13,
    14
   ]
  },
  {
   "name": "camera1_aim",
   "translation": [
    -1.5211000442504883,
    20.25550079345703,
    9.314860343933105
   ]
  },
  {
   "name": "camera1_aim1",
   "translation": [
    2.6503899097442627,
    18.309900283813477,
    7.833270072937012
   ],
   "rotation": [
    -0.040124516661336145,
    -0.0069201220444327785,
    0.08668625334492151,
    0.9954032449361664
   ]
  },
  {
   "name": "Anglerfish_Rig:pSphere4",
   "translation": [
    -0.03076010011136532,
    0.21516500413417816,
    0.10472899675369263
   ],
   "scale": [
    0.020424900576472282,
    0.020424900576472282,
    0.020424900576472282
   ],
   "mesh": 0
  },
  {
   "name": "Anglerfish_Rig:pPyramid25",
   "translation": [
    0,
    0.000054898231610422954,
    0.04451994225382805
   ],
   "scale": [
    0.009999999776482582,
    0.009999999776482582,
    0.009999999776482582
   ],
   "mesh": 1
  },
  {
   "name": "Anglerfish_Rig:pSphere1",
   "translation": [
    0.030448999255895615,
    0.2151769995689392,
    0.10472899675369263
   ],
   "scale": [
    0.020424900576472282,
    0.020424900576472282,
    0.020424900576472282
   ],
   "mesh": 2
  },
  {
   "name": "pSphere5",
   "translation": [
    0.02448819950222969,
    0.3305929899215698,
    0.3073759973049164
   ],
   "scale": [
    0.8461310267448425,
    0.8461310267448425,
    0.8461310267448425
   ],
   "mesh": 3
  }
 ],
 "samplers": [
  {
   "magFilter": 9729,
   "minFilter": 9987,
   "wrapS": 10497,
   "wrapT": 10497
  }
 ],
 "scene": 0,
 "scenes": [
  {
   "nodes": [
    0
   ]
  }
 ],
 "textures": [
  {
   "sampler": 0,
   "source": 0
  }
 ]
}